<?xml version="1.0" encoding="UTF-8"?>
<svg width="350px" height="150px" viewBox="0 0 166 140" version="1.1" xmlns="http://www.w3.org/2000/svg" xmlns:xlink="http://www.w3.org/1999/xlink">
    <title>180px X 180 px</title>
    <g id="180px-X-180-px" stroke="none" stroke-width="1" fill="none" fill-rule="evenodd">
        <g id="Group">
            <path d="M139.998164,69.4964424 L139.496139,0 L69.4979752,0.504929729 C30.8393248,0.784836427 -0.27523756,32.1234098 0.00183621892,70.5063018 L0.501117682,140 L70.5020248,139.49507 C109.160675,139.215164 140.275238,107.873846 139.998164,69.4964424" id="Fill-1" fill="#2C7300"></path>
            <path d="M140,0 C116.58462,0.170196078 93.1637502,0.337647059 69.7483703,0.505098039 C30.9496624,0.785098039 -0.275419168,32.1258824 0.00183210549,70.5078431 L0.506923535,140 C31.8637681,123.260392 49.4129502,104.080392 59.6081109,89.8003922 C77.6761097,64.4796078 81.5521374,42.0576471 107.413368,19.9843137 C119.766147,9.44039216 131.970693,3.38470588 140,0" id="Fill-3" fill="#94CF28"></path>
            <path d="M98.1186797,93.6028705 L48.4036956,93.9721139 L54.9430602,68.9426889 L89.3793725,68.6861367 C89.435185,68.6837391 89.4863464,68.6717506 89.5421589,68.669353 L86.6631641,60.3014352 L57.1430028,60.5220222 L63.6800419,35.4901996 L78.0936199,35.3823038 L75.2076486,27 L60.5219846,27.1102935 C58.6894742,27.1222819 57.0918414,28.3954522 56.6151096,30.2200898 L39.1411462,97.1226708 C38.8085967,98.3886481 39.0713806,99.7457373 39.8481045,100.783935 C40.627154,101.822132 41.8317738,102.426348 43.1061592,102.416757 L67.4032007,102.236931 L67.4776174,112.743583 C67.4822684,113.441309 68.1194611,114.004765 68.8961851,114 L74.2286043,113.959209 C75.0076538,113.952016 75.6332189,113.383765 75.6285678,112.683641 L75.5541512,102.174591 L101,101.985174 L98.1186797,93.6028705 Z" id="Fill-6" fill="#FFFFFF"></path>
        </g>
        <g id="React" transform="translate(109.000000, 88.000000)" fill-rule="nonzero">
            <path d="M0,25.9065271 C0,30.2744649 4.20347836,34.3518888 10.8302912,36.6503129 C9.50694494,43.4101029 10.5932673,48.858716 14.2212121,50.9816497 C17.9501946,53.1639137 23.5056951,51.6533778 28.7786936,46.976286 C33.9186181,51.4644756 39.113206,53.2307455 42.7380144,51.1016742 C46.4636364,48.9132726 47.596557,43.0952658 46.2366938,36.1242963 C53.1390638,33.8088233 57,30.3319766 57,25.9065271 C57,21.6399737 52.7889046,17.9489924 46.2512557,15.665344 C47.715293,8.40636112 46.4748379,3.09004778 42.6965688,0.879368893 C39.054062,-1.25197561 33.798986,0.605676617 28.5835633,5.21116292 C23.1575522,0.322891575 17.9544511,-1.16945875 14.1802146,1.04735776 C10.5410683,3.18483987 9.50268836,8.73256412 10.8302912,15.6173797 C4.42706049,17.8826152 0,21.6572499 0,25.9065271 Z" id="Path" fill="#FFFFFF"></path>
            <path d="M44.9324205,17.909404 C44.3895864,17.7206388 43.8421469,17.5457695 43.290623,17.3849626 C43.3820854,17.0081989 43.4666651,16.6297523 43.5443184,16.2498169 C44.7870647,10.1340795 43.9745172,5.20725898 41.1996672,3.58542619 C38.539251,2.02994942 34.1880587,3.65178221 29.7935306,7.52857581 C29.3605066,7.91145994 28.9370944,8.30537432 28.5236993,8.70994188 C28.2468598,8.44092843 27.9651283,8.17713704 27.6786498,7.91870348 C23.073085,3.77305357 18.4566863,2.0262884 15.6847705,3.65292628 C13.0268371,5.21275051 12.2395688,9.84462992 13.3584016,15.6404855 C13.4697177,16.2144443 13.5954022,16.785443 13.7353334,17.3529286 C13.0821355,17.5410136 12.4512826,17.7414546 11.8477403,17.9547091 C6.44836163,19.8630169 3,22.854072 3,25.9563306 C3,29.1606402 6.70160562,32.37456 12.3257891,34.323139 C12.7818273,34.4804097 13.2416614,34.6261331 13.7048629,34.7601735 C13.554384,35.3715505 13.4207882,35.9870713 13.3042318,36.6060151 C12.2375374,42.3011926 13.0706244,46.8232413 15.7215608,48.3734554 C18.4596205,49.9740085 23.0550284,48.3288367 27.5299085,44.3634921 C27.8835924,44.0500171 28.2386305,43.7175505 28.5941201,43.369067 C29.0418839,43.8070304 29.5016032,44.2322554 29.9727425,44.6442467 C34.3072324,48.4253961 38.5880039,49.9522712 41.2366832,48.3979385 C43.9722601,46.7925803 44.8610969,41.9346328 43.7068279,36.0241414 C43.6188019,35.5726916 43.5161049,35.1116316 43.400994,34.6421055 C43.723756,34.5455461 44.0404238,34.4457832 44.3494176,34.3419017 C50.1961488,32.378221 54,29.2034284 54,25.9563306 C54,22.8428601 50.4405902,19.8316694 44.9324205,17.909404 Z" id="Path" fill="#53C1DE"></path>
            <path d="M43.955142,32.6569876 C43.6802354,32.7492401 43.3979831,32.8383347 43.1103885,32.9247227 C42.4737627,30.8827634 41.6145404,28.711335 40.56344,26.4681797 C41.5666822,24.2780301 42.392515,22.1345705 43.0113331,20.1056935 C43.5257534,20.2568161 44.0252599,20.4158331 44.5065134,20.5838724 C49.161005,22.2071996 52,24.6077931 52,26.457353 C52,28.4275854 48.933734,30.9853915 43.9553646,32.6569876 L43.955142,32.6569876 Z M41.889447,36.8047386 C42.3927375,39.3810402 42.4646362,41.7103579 42.1311867,43.5312722 C41.8315719,45.1674561 41.2292259,46.2582453 40.4844182,46.6951475 C38.899309,47.6248897 35.5093878,46.4163602 31.853909,43.2288015 C31.4347599,42.8634007 31.0124944,42.4731886 30.589116,42.060421 C32.0063876,40.4896484 33.4227687,38.6635463 34.8050926,36.635797 C37.2367362,36.4172332 39.5339314,36.0597268 41.6172115,35.571849 C41.7196059,35.9913833 41.8108704,36.402572 41.889447,36.8047386 L41.889447,36.8047386 Z M20.9987709,46.5345516 C19.4501674,47.0887429 18.2167605,47.1045318 17.4712851,46.668983 C15.8846176,45.7419475 15.225287,42.1623723 16.1247992,37.361411 C16.2317657,36.7940383 16.3542408,36.2297807 16.4920833,35.6692892 C18.5522134,36.1310025 20.8327139,36.4632466 23.270145,36.6635404 C24.6615953,38.6477574 26.1189342,40.4716039 27.5876256,42.0687666 C27.2754896,42.3747251 26.9559668,42.6728503 26.6293479,42.9628709 C24.6778449,44.6915328 22.7223351,45.9176557 20.9989935,46.5345516 L20.9987709,46.5345516 Z M13.743685,32.6448076 C11.2911174,31.7953634 9.26571241,30.6914919 7.87737839,29.4870224 C6.62994793,28.4043531 6,27.3295784 6,26.457353 C6,24.601703 8.73059056,22.2344919 13.2846912,20.6256003 C13.8562964,20.4245435 14.4335878,20.2404861 15.0158237,20.0736646 C15.6453264,22.1481039 16.4709366,24.3170513 17.4672783,26.5103587 C16.4580261,28.7363717 15.6206182,30.9398291 14.985328,33.0386285 C14.568325,32.9176836 14.154319,32.7863703 13.743685,32.6448076 L13.743685,32.6448076 Z M16.1757738,15.8702013 C15.2304067,10.9749575 15.8581286,7.28237876 17.4378956,6.35579435 C19.1207247,5.36876091 22.8414242,6.7762309 26.7631284,10.3046048 C27.0137719,10.5301609 27.2655285,10.7663181 27.5177303,11.0105954 C26.0566072,12.6005402 24.6126241,14.4106278 23.233194,16.3833414 C20.8676616,16.6055141 18.603188,16.9623439 16.521466,17.4402972 C16.3932334,16.9198829 16.2779661,16.3962761 16.1757738,15.8699757 L16.1757738,15.8702013 Z M37.8715812,21.2986597 C37.3798828,20.4380346 36.8699445,19.5882429 36.3421211,18.7498759 C37.9470414,18.9551319 39.484515,19.2280548 40.9282756,19.5621033 C40.4948803,20.9697989 39.9546387,22.4417779 39.3184581,23.9507482 C38.853636,23.0570475 38.3712475,22.1728418 37.8715812,21.2986597 L37.8715812,21.2986597 Z M29.0240404,12.5664813 C30.0150398,13.6543383 31.0075973,14.8691834 31.9839053,16.1871076 C30.0034672,16.0922793 28.0197247,16.0918277 26.0392447,16.1857543 C27.0164431,14.8800101 28.0174593,13.6669694 29.0240404,12.5664813 L29.0240404,12.5664813 Z M20.1197375,21.3135464 C19.6263272,22.1807762 19.1529582,23.0595564 18.7000174,23.9491693 C18.0742988,22.4453868 17.5389544,20.9668667 17.101775,19.5390966 C18.5368542,19.2136192 20.0672048,18.9476886 21.6616631,18.7458159 C21.1279243,19.5893786 20.6138074,20.4455247 20.1197375,21.3135464 L20.1197375,21.3135464 Z M21.707518,34.3242982 C20.0603043,34.1379889 18.5068037,33.8855917 17.0721696,33.5691365 C17.5162495,32.1161041 18.0633916,30.6057806 18.702466,29.0697436 C19.1573163,29.9600159 19.6327653,30.8393262 20.1284188,31.7069454 C20.6341827,32.5919886 21.1606987,33.4646875 21.707518,34.3242982 L21.707518,34.3242982 Z M29.0834737,40.502054 C28.0650949,39.3884836 27.0493874,38.1569473 26.057275,36.8322564 C27.0202272,36.8706009 28.0021001,36.8899988 29,36.8899988 C30.0252792,36.8899988 31.0387608,36.8667665 32.0362155,36.8216553 C31.0567911,38.1704807 30.0677951,39.4038214 29.0834737,40.502054 Z M39.338937,28.9914756 C40.0111782,30.5442038 40.5779088,32.0464073 41.0279988,33.474854 C39.5695469,33.8120604 37.9951222,34.0836299 36.3361109,34.285277 C36.8677495,33.4312572 37.3825685,32.5666048 37.8802625,31.6918331 C38.3861987,30.8027915 38.872544,29.9024494 39.338937,28.9914756 L39.338937,28.9914756 Z M36.018911,30.6042017 C35.2570079,31.9453483 34.4522675,33.2610355 33.6059656,34.5491777 C32.113679,34.657219 30.5715309,34.7129314 29,34.7129314 C27.4349244,34.7129314 25.9123647,34.6635346 24.446122,34.5672222 C23.5778704,33.2820792 22.7579066,31.9641149 21.9879895,30.6161561 C21.221671,29.2753491 20.5058787,27.9055374 19.8421598,26.509682 C20.5041905,25.1134084 21.2178198,23.7428629 21.9815342,22.4009523 L21.9815342,22.4014034 C22.7450089,21.059207 23.5585175,19.746878 24.4203008,18.4672541 C25.9161489,18.3526716 27.4498384,18.2926737 29.0002226,18.2926737 C30.5575073,18.2926737 32.0932002,18.3531227 33.5886031,18.4686074 C34.4416696,19.7462622 35.2499751,21.0540232 36.0120105,22.3894489 C36.7783511,23.7283741 37.5015041,25.092206 38.1803225,26.4787808 C37.5084868,27.8794827 36.7876337,29.2554951 36.0191336,30.6042017 L36.018911,30.6042017 Z M40.451474,6.29105975 C42.1356387,7.27538653 42.79074,11.244497 41.7325165,16.4496549 C41.6631556,16.7887395 41.5877573,17.1265272 41.5063585,17.4628528 C39.4197395,16.974975 37.1537077,16.6118297 34.7812748,16.3862736 C33.3991735,14.3921322 31.9672106,12.5788868 30.5296828,11.0094676 C30.9063745,10.6414836 31.2920305,10.2830396 31.6862939,9.93446726 C35.3996477,6.65984396 38.8701488,5.36695646 40.451474,6.29105975 L40.451474,6.29105975 Z" id="Shape" fill="#FFFFFF"></path>
            <path d="M28.5,22 C30.9854042,22 33,24.0147689 33,26.4998885 C33,28.9852311 30.9854042,31 28.5,31 C26.0148189,31 24,28.9852311 24,26.4998885 C24,24.0147689 26.0148189,22 28.5,22" id="Path" fill="#53C1DE"></path>
        </g>
    </g>
</svg>